# xmcd
#
# Track frame offsets: 
#        150
#        11340
#        21144
#        35830
#        51082
#        65268
#        75334
#        85532
#        99133
#        110310
#        120614
#        133695
#        143823
#        154949
#
# Disc length: 2285 seconds
#
# Revision: 8
# Processed by: cddbd v1.5.2PL0 Copyright (c) Steve Scherf et al.
# Submitted via: ExactAudioCopy v1.0b4
#
DISCID=a208eb0e
DTITLE=Various Artist - 4 CD Country Collection - CD 4
DYEAR=1998
DGENRE=Country
TTITLE0=Conway Twitty - Hello Darlin'
TTITLE1=Merle Haggard - Mama Tried
TTITLE2=Lee Greenwood - God Bless The Usa
TTITLE3=Billy Jo Spears - Blanket On The Ground
TTITLE4=T. Graham Brown - Hell And High Water
TTITLE5=The Jordanaires - Wear My Ring Around Your Neck
TTITLE6=Roger Miller - Engine N° 9
TTITLE7=The Kendalls - Hearthtaches By The Number
TTITLE8=Boxcar Willie - Wreck The Old
TTITLE9=The Everly Brothers - This Little Girl Of Mine
TTITLE10=Ray Stevens - Misty
TTITLE11=Patsy Cline - Three Cigarettes In An Ashtray
TTITLE12=Conway Twitty - It's Only Make Believe
TTITLE13=Lee Greenwood - Somebody's Gonna Love You
EXTD=YEAR: 1998
EXTT0=
EXTT1=
EXTT2=
EXTT3=
EXTT4=
EXTT5=
EXTT6=
EXTT7=
EXTT8=
EXTT9=
EXTT10=
EXTT11=
EXTT12=
EXTT13=
PLAYORDER=
